<svg width="32" height="24" viewBox="0 0 32 24" fill="none" xmlns="http://www.w3.org/2000/svg">
<path d="M31.5167 11.8835C31.5167 18.4471 26.1961 23.767 19.6316 23.767H11.8859V0H19.6316C26.1961 0 31.5167 5.32181 31.5167 11.8835Z" fill="url(#paint0_linear_53_294)"/>
<path d="M16.5692 20.5604C16.6762 21.6656 17.0228 22.6876 17.5537 23.5848C17.5874 23.6462 17.625 23.7056 17.6627 23.767H11.8859V12.543H23.1714C19.1324 12.9352 16.177 16.524 16.5692 20.5604Z" fill="#6400E6"/>
<path d="M23.7701 11.8865C23.7701 12.2285 23.5099 12.5124 23.1695 12.5465C19.4005 12.9246 16.1508 15.0637 14.2541 18.1284C13.3319 19.6206 12.7289 21.3338 12.5457 23.169C12.5117 23.5091 12.2279 23.7691 11.886 23.7691C11.5439 23.7691 11.2602 23.5089 11.2261 23.1687C10.6651 17.5651 6.2066 13.1073 0.600515 12.5464C0.260185 12.5123 0 12.2286 0 11.8866C0 11.5446 0.260201 11.2608 0.600544 11.2268C6.20842 10.666 10.6653 6.20968 11.2262 0.602541C11.2602 0.262242 11.544 0.0020752 11.886 0.0020752C12.228 0.0020752 12.5119 0.262233 12.5459 0.602525C13.1068 6.20792 17.5636 10.6658 23.1696 11.2267C23.5099 11.2608 23.7701 11.5445 23.7701 11.8865Z" fill="url(#paint1_linear_53_294)"/>
<defs>
<linearGradient id="paint0_linear_53_294" x1="21.7013" y1="23.767" x2="21.7013" y2="0" gradientUnits="userSpaceOnUse">
<stop stop-color="#6400E6"/>
<stop offset="0.00798" stop-color="#6501E6"/>
<stop offset="0.21029" stop-color="#8A25EF"/>
<stop offset="0.41265" stop-color="#A741F6"/>
<stop offset="0.61287" stop-color="#BC55FB"/>
<stop offset="0.80988" stop-color="#C861FE"/>
<stop offset="1" stop-color="#CD66FF"/>
</linearGradient>
<linearGradient id="paint1_linear_53_294" x1="5.80563" y1="17.9652" x2="17.9639" y2="5.80537" gradientUnits="userSpaceOnUse">
<stop stop-color="#CD66FF"/>
<stop offset="1" stop-color="#FFB3FF"/>
</linearGradient>
</defs>
</svg>
